M48
; DRILL file {KiCad 9.0.3} date 2025-07-21T22:41:59+0530
; FORMAT={-:-/ absolute / metric / decimal}
; #@! TF.CreationDate,2025-07-21T22:41:59+05:30
; #@! TF.GenerationSoftware,Kicad,Pcbnew,9.0.3
; #@! TF.FileFunction,Plated,1,2,PTH
FMAT,2
METRIC
; #@! TA.AperFunction,Plated,PTH,ViaDrill
T1C0.300
; #@! TA.AperFunction,Plated,PTH,ComponentDrill
T2C0.750
; #@! TA.AperFunction,Plated,PTH,ComponentDrill
T3C0.800
; #@! TA.AperFunction,Plated,PTH,ComponentDrill
T4C0.900
; #@! TA.AperFunction,Plated,PTH,ComponentDrill
T5C1.000
%
G90
G05
T1
X118.5Y-82.5
X134.5Y-92.0
X148.0Y-88.0
X164.0Y-97.5
T2
X121.23Y-84.0
X122.5Y-84.0
X123.77Y-84.0
X158.73Y-96.0
X160.0Y-96.0
X161.27Y-96.0
T3
X120.8Y-96.5
X121.42Y-90.5
X124.2Y-96.5
X131.58Y-90.5
X150.92Y-89.5
X158.3Y-83.5
X161.08Y-89.5
X161.7Y-83.5
T4
X128.0Y-84.5
X129.5Y-94.843
X129.5Y-98.142
X130.54Y-84.5
X132.0Y-94.843
X132.0Y-98.142
X134.5Y-94.843
X134.5Y-98.142
X148.0Y-81.858
X148.0Y-85.157
X150.5Y-81.858
X150.5Y-85.157
X151.96Y-95.5
X153.0Y-81.858
X153.0Y-85.157
X154.5Y-95.5
T5
X107.2Y-90.0
X114.8Y-90.0
X167.7Y-90.0
X175.3Y-90.0
M30
