%TF.GenerationSoftware,KiCad,Pcbnew,9.0.3*%
%TF.CreationDate,2025-07-21T22:41:49+05:30*%
%TF.ProjectId,ldr sensor.kicad_pc_boards,6c647220-7365-46e7-936f-722e6b696361,rev?*%
%TF.SameCoordinates,Original*%
%TF.FileFunction,Copper,L1,Top*%
%TF.FilePolarity,Positive*%
%FSLAX46Y46*%
G04 Gerber Fmt 4.6, Leading zero omitted, Abs format (unit mm)*
G04 Created by KiCad (PCBNEW 9.0.3) date 2025-07-21 22:41:49*
%MOMM*%
%LPD*%
G01*
G04 APERTURE LIST*
G04 Aperture macros list*
%AMRoundRect*
0 Rectangle with rounded corners*
0 $1 Rounding radius*
0 $2 $3 $4 $5 $6 $7 $8 $9 X,Y pos of 4 corners*
0 Add a 4 corners polygon primitive as box body*
4,1,4,$2,$3,$4,$5,$6,$7,$8,$9,$2,$3,0*
0 Add four circle primitives for the rounded corners*
1,1,$1+$1,$2,$3*
1,1,$1+$1,$4,$5*
1,1,$1+$1,$6,$7*
1,1,$1+$1,$8,$9*
0 Add four rect primitives between the rounded corners*
20,1,$1+$1,$2,$3,$4,$5,0*
20,1,$1+$1,$4,$5,$6,$7,0*
20,1,$1+$1,$6,$7,$8,$9,0*
20,1,$1+$1,$8,$9,$2,$3,0*%
G04 Aperture macros list end*
%TA.AperFunction,SMDPad,CuDef*%
%ADD10RoundRect,0.225000X1.025000X0.525000X-1.025000X0.525000X-1.025000X-0.525000X1.025000X-0.525000X0*%
%TD*%
%TA.AperFunction,ComponentPad*%
%ADD11R,1.050000X1.500000*%
%TD*%
%TA.AperFunction,ComponentPad*%
%ADD12O,1.050000X1.500000*%
%TD*%
%TA.AperFunction,ComponentPad*%
%ADD13C,1.500000*%
%TD*%
%TA.AperFunction,ComponentPad*%
%ADD14R,2.000000X2.000000*%
%TD*%
%TA.AperFunction,ComponentPad*%
%ADD15C,2.000000*%
%TD*%
%TA.AperFunction,ComponentPad*%
%ADD16RoundRect,0.250000X0.450000X0.450000X-0.450000X0.450000X-0.450000X-0.450000X0.450000X-0.450000X0*%
%TD*%
%TA.AperFunction,ComponentPad*%
%ADD17C,1.400000*%
%TD*%
%TA.AperFunction,ComponentPad*%
%ADD18R,1.800000X1.800000*%
%TD*%
%TA.AperFunction,ComponentPad*%
%ADD19C,1.800000*%
%TD*%
%TA.AperFunction,ComponentPad*%
%ADD20C,1.600000*%
%TD*%
%TA.AperFunction,ComponentPad*%
%ADD21RoundRect,0.250000X-0.450000X-0.450000X0.450000X-0.450000X0.450000X0.450000X-0.450000X0.450000X0*%
%TD*%
%TA.AperFunction,SMDPad,CuDef*%
%ADD22RoundRect,0.225000X-1.025000X-0.525000X1.025000X-0.525000X1.025000X0.525000X-1.025000X0.525000X0*%
%TD*%
%TA.AperFunction,ViaPad*%
%ADD23C,0.600000*%
%TD*%
%TA.AperFunction,Conductor*%
%ADD24C,0.200000*%
%TD*%
G04 APERTURE END LIST*
D10*
%TO.P,BT1,1,+*%
%TO.N,Net-(BT1-+)*%
X136000000Y-90000000D03*
%TO.P,BT1,2,-*%
%TO.N,Net-(BT1--)*%
X136000000Y-83000000D03*
%TD*%
D11*
%TO.P,Q1,1,C*%
%TO.N,Net-(BZ1--)*%
X123770000Y-84000000D03*
D12*
%TO.P,Q1,2,B*%
%TO.N,Net-(Q1-B)*%
X122500000Y-84000000D03*
%TO.P,Q1,3,E*%
%TO.N,Net-(Q1-E)*%
X121230000Y-84000000D03*
%TD*%
D13*
%TO.P,R2,1*%
%TO.N,Net-(Q1-B)*%
X124200000Y-96500000D03*
%TO.P,R2,2*%
%TO.N,Net-(Q1-E)*%
X120800000Y-96500000D03*
%TD*%
D14*
%TO.P,BZ1,1,+*%
%TO.N,Net-(BZ1-+)*%
X114800000Y-90000000D03*
D15*
%TO.P,BZ1,2,-*%
%TO.N,Net-(BZ1--)*%
X107200000Y-90000000D03*
%TD*%
D16*
%TO.P,SW1,1,A*%
%TO.N,Net-(Q1-E)*%
X134500000Y-98142500D03*
D17*
%TO.P,SW1,2,B*%
%TO.N,Net-(BT1--)*%
X132000000Y-98142500D03*
%TO.P,SW1,3,C*%
%TO.N,unconnected-(SW1-C-Pad3)*%
X129500000Y-98142500D03*
%TO.P,SW1,4*%
%TO.N,N/C*%
X129500000Y-94842500D03*
%TO.P,SW1,5*%
X132000000Y-94842500D03*
%TO.P,SW1,6*%
X134500000Y-94842500D03*
%TD*%
D18*
%TO.P,D1,1,K*%
%TO.N,Net-(BZ1-+)*%
X130540000Y-84500000D03*
D19*
%TO.P,D1,2,A*%
%TO.N,Net-(BT1-+)*%
X128000000Y-84500000D03*
%TD*%
D20*
%TO.P,R1,1*%
%TO.N,Net-(BT1-+)*%
X131580000Y-90500000D03*
%TO.P,R1,2*%
%TO.N,Net-(Q1-B)*%
X121420000Y-90500000D03*
%TD*%
D21*
%TO.P,SW1,1,A*%
%TO.N,Net-(Q1-E)*%
X148000000Y-81857500D03*
D17*
%TO.P,SW1,2,B*%
%TO.N,Net-(BT1--)*%
X150500000Y-81857500D03*
%TO.P,SW1,3,C*%
%TO.N,unconnected-(SW1-C-Pad3)*%
X153000000Y-81857500D03*
%TO.P,SW1,4*%
%TO.N,N/C*%
X153000000Y-85157500D03*
%TO.P,SW1,5*%
X150500000Y-85157500D03*
%TO.P,SW1,6*%
X148000000Y-85157500D03*
%TD*%
D14*
%TO.P,BZ1,1,+*%
%TO.N,Net-(BZ1-+)*%
X167700000Y-90000000D03*
D15*
%TO.P,BZ1,2,-*%
%TO.N,Net-(BZ1--)*%
X175300000Y-90000000D03*
%TD*%
D22*
%TO.P,BT1,1,+*%
%TO.N,Net-(BT1-+)*%
X146500000Y-90000000D03*
%TO.P,BT1,2,-*%
%TO.N,Net-(BT1--)*%
X146500000Y-97000000D03*
%TD*%
D13*
%TO.P,R2,1*%
%TO.N,Net-(Q1-B)*%
X158300000Y-83500000D03*
%TO.P,R2,2*%
%TO.N,Net-(Q1-E)*%
X161700000Y-83500000D03*
%TD*%
D20*
%TO.P,R1,1*%
%TO.N,Net-(BT1-+)*%
X150920000Y-89500000D03*
%TO.P,R1,2*%
%TO.N,Net-(Q1-B)*%
X161080000Y-89500000D03*
%TD*%
D18*
%TO.P,D1,1,K*%
%TO.N,Net-(BZ1-+)*%
X151960000Y-95500000D03*
D19*
%TO.P,D1,2,A*%
%TO.N,Net-(BT1-+)*%
X154500000Y-95500000D03*
%TD*%
D11*
%TO.P,Q1,1,C*%
%TO.N,Net-(BZ1--)*%
X158730000Y-96000000D03*
D12*
%TO.P,Q1,2,B*%
%TO.N,Net-(Q1-B)*%
X160000000Y-96000000D03*
%TO.P,Q1,3,E*%
%TO.N,Net-(Q1-E)*%
X161270000Y-96000000D03*
%TD*%
D23*
%TO.N,Net-(BT1-+)*%
X134500000Y-92000000D03*
%TO.N,Net-(BZ1-+)*%
X118500000Y-82500000D03*
%TO.N,Net-(BT1-+)*%
X148000000Y-88000000D03*
%TO.N,Net-(BZ1-+)*%
X164000000Y-97500000D03*
%TD*%
D24*
%TO.N,Net-(BT1--)*%
X133500000Y-90500000D02*
X133500000Y-85500000D01*
X133500000Y-85500000D02*
X136000000Y-83000000D01*
X130500000Y-93500000D02*
X133500000Y-90500000D01*
%TO.N,Net-(BT1-+)*%
X128000000Y-85500000D02*
X128000000Y-84500000D01*
%TO.N,Net-(BT1--)*%
X132000000Y-98142500D02*
X130500000Y-96642500D01*
%TO.N,Net-(BZ1--)*%
X114000000Y-81000000D02*
X122500000Y-81000000D01*
X123770000Y-82270000D02*
X123770000Y-84000000D01*
X122500000Y-81000000D02*
X123770000Y-82270000D01*
%TO.N,Net-(BT1-+)*%
X135500000Y-92000000D02*
X134500000Y-92000000D01*
%TO.N,Net-(BZ1--)*%
X107200000Y-90000000D02*
X107200000Y-87800000D01*
%TO.N,Net-(BT1-+)*%
X136000000Y-90000000D02*
X136000000Y-91500000D01*
%TO.N,Net-(BT1--)*%
X130500000Y-96642500D02*
X130500000Y-93500000D01*
%TO.N,Net-(BT1-+)*%
X136000000Y-91500000D02*
X135500000Y-92000000D01*
X131580000Y-90500000D02*
X131580000Y-89080000D01*
X131580000Y-89080000D02*
X128000000Y-85500000D01*
%TO.N,Net-(Q1-B)*%
X121420000Y-88580000D02*
X121420000Y-90500000D01*
X121420000Y-91920000D02*
X124200000Y-94700000D01*
X121420000Y-90500000D02*
X121420000Y-91920000D01*
%TO.N,Net-(BZ1-+)*%
X114800000Y-86200000D02*
X118500000Y-82500000D01*
X114800000Y-90000000D02*
X114800000Y-86200000D01*
%TO.N,Net-(BZ1--)*%
X107200000Y-87800000D02*
X114000000Y-81000000D01*
%TO.N,Net-(Q1-E)*%
X121230000Y-85770000D02*
X119000000Y-88000000D01*
X123800000Y-99500000D02*
X133142500Y-99500000D01*
X119000000Y-88000000D02*
X119000000Y-94700000D01*
X133142500Y-99500000D02*
X134500000Y-98142500D01*
%TO.N,Net-(Q1-B)*%
X122500000Y-84000000D02*
X122500000Y-87500000D01*
%TO.N,Net-(Q1-E)*%
X121230000Y-84000000D02*
X121230000Y-85770000D01*
%TO.N,Net-(Q1-B)*%
X122500000Y-87500000D02*
X121420000Y-88580000D01*
X124200000Y-94700000D02*
X124200000Y-96500000D01*
%TO.N,Net-(Q1-E)*%
X120800000Y-96500000D02*
X123800000Y-99500000D01*
X119000000Y-94700000D02*
X120800000Y-96500000D01*
%TO.N,Net-(BT1--)*%
X150500000Y-81857500D02*
X152000000Y-83357500D01*
X152000000Y-83357500D02*
X152000000Y-86500000D01*
X152000000Y-86500000D02*
X149000000Y-89500000D01*
X149000000Y-94500000D02*
X146500000Y-97000000D01*
X149000000Y-89500000D02*
X149000000Y-94500000D01*
%TO.N,Net-(BT1-+)*%
X154500000Y-94500000D02*
X154500000Y-95500000D01*
X150920000Y-90920000D02*
X154500000Y-94500000D01*
X146500000Y-90000000D02*
X146500000Y-88500000D01*
X150920000Y-89500000D02*
X150920000Y-90920000D01*
X147000000Y-88000000D02*
X148000000Y-88000000D01*
X146500000Y-88500000D02*
X147000000Y-88000000D01*
%TO.N,Net-(BZ1--)*%
X175300000Y-90000000D02*
X175300000Y-92200000D01*
X160000000Y-99000000D02*
X158730000Y-97730000D01*
X158730000Y-97730000D02*
X158730000Y-96000000D01*
X168500000Y-99000000D02*
X160000000Y-99000000D01*
X175300000Y-92200000D02*
X168500000Y-99000000D01*
%TO.N,Net-(BZ1-+)*%
X167700000Y-90000000D02*
X167700000Y-93800000D01*
X167700000Y-93800000D02*
X164000000Y-97500000D01*
%TO.N,Net-(Q1-B)*%
X161080000Y-89500000D02*
X161080000Y-88080000D01*
X161080000Y-88080000D02*
X158300000Y-85300000D01*
X161080000Y-91420000D02*
X161080000Y-89500000D01*
X160000000Y-96000000D02*
X160000000Y-92500000D01*
X160000000Y-92500000D02*
X161080000Y-91420000D01*
X158300000Y-85300000D02*
X158300000Y-83500000D01*
%TO.N,Net-(Q1-E)*%
X161270000Y-94230000D02*
X163500000Y-92000000D01*
X163500000Y-92000000D02*
X163500000Y-85300000D01*
X161270000Y-96000000D02*
X161270000Y-94230000D01*
X163500000Y-85300000D02*
X161700000Y-83500000D01*
X158700000Y-80500000D02*
X149357500Y-80500000D01*
X161700000Y-83500000D02*
X158700000Y-80500000D01*
X149357500Y-80500000D02*
X148000000Y-81857500D01*
%TD*%
M02*
