%TF.GenerationSoftware,KiCad,Pcbnew,9.0.3*%
%TF.CreationDate,2025-07-21T22:41:49+05:30*%
%TF.ProjectId,ldr sensor.kicad_pc_boards,6c647220-7365-46e7-936f-722e6b696361,rev?*%
%TF.SameCoordinates,Original*%
%TF.FileFunction,Legend,Top*%
%TF.FilePolarity,Positive*%
%FSLAX46Y46*%
G04 Gerber Fmt 4.6, Leading zero omitted, Abs format (unit mm)*
G04 Created by KiCad (PCBNEW 9.0.3) date 2025-07-21 22:41:49*
%MOMM*%
%LPD*%
G01*
G04 APERTURE LIST*
%ADD10C,0.100000*%
%ADD11C,0.150000*%
%ADD12C,0.120000*%
G04 APERTURE END LIST*
D10*
X135214285Y-86933609D02*
X135357142Y-86981228D01*
X135357142Y-86981228D02*
X135404761Y-87028847D01*
X135404761Y-87028847D02*
X135452380Y-87124085D01*
X135452380Y-87124085D02*
X135452380Y-87266942D01*
X135452380Y-87266942D02*
X135404761Y-87362180D01*
X135404761Y-87362180D02*
X135357142Y-87409800D01*
X135357142Y-87409800D02*
X135261904Y-87457419D01*
X135261904Y-87457419D02*
X134880952Y-87457419D01*
X134880952Y-87457419D02*
X134880952Y-86457419D01*
X134880952Y-86457419D02*
X135214285Y-86457419D01*
X135214285Y-86457419D02*
X135309523Y-86505038D01*
X135309523Y-86505038D02*
X135357142Y-86552657D01*
X135357142Y-86552657D02*
X135404761Y-86647895D01*
X135404761Y-86647895D02*
X135404761Y-86743133D01*
X135404761Y-86743133D02*
X135357142Y-86838371D01*
X135357142Y-86838371D02*
X135309523Y-86885990D01*
X135309523Y-86885990D02*
X135214285Y-86933609D01*
X135214285Y-86933609D02*
X134880952Y-86933609D01*
X135738095Y-86457419D02*
X136309523Y-86457419D01*
X136023809Y-87457419D02*
X136023809Y-86457419D01*
X137166666Y-87457419D02*
X136595238Y-87457419D01*
X136880952Y-87457419D02*
X136880952Y-86457419D01*
X136880952Y-86457419D02*
X136785714Y-86600276D01*
X136785714Y-86600276D02*
X136690476Y-86695514D01*
X136690476Y-86695514D02*
X136595238Y-86743133D01*
X135196115Y-84508533D02*
X134434211Y-84508533D01*
X135196115Y-88508533D02*
X134434211Y-88508533D01*
X134815163Y-88127580D02*
X134815163Y-88889485D01*
D11*
X122404761Y-88110057D02*
X122309523Y-88062438D01*
X122309523Y-88062438D02*
X122214285Y-87967200D01*
X122214285Y-87967200D02*
X122071428Y-87824342D01*
X122071428Y-87824342D02*
X121976190Y-87776723D01*
X121976190Y-87776723D02*
X121880952Y-87776723D01*
X121928571Y-88014819D02*
X121833333Y-87967200D01*
X121833333Y-87967200D02*
X121738095Y-87871961D01*
X121738095Y-87871961D02*
X121690476Y-87681485D01*
X121690476Y-87681485D02*
X121690476Y-87348152D01*
X121690476Y-87348152D02*
X121738095Y-87157676D01*
X121738095Y-87157676D02*
X121833333Y-87062438D01*
X121833333Y-87062438D02*
X121928571Y-87014819D01*
X121928571Y-87014819D02*
X122119047Y-87014819D01*
X122119047Y-87014819D02*
X122214285Y-87062438D01*
X122214285Y-87062438D02*
X122309523Y-87157676D01*
X122309523Y-87157676D02*
X122357142Y-87348152D01*
X122357142Y-87348152D02*
X122357142Y-87681485D01*
X122357142Y-87681485D02*
X122309523Y-87871961D01*
X122309523Y-87871961D02*
X122214285Y-87967200D01*
X122214285Y-87967200D02*
X122119047Y-88014819D01*
X122119047Y-88014819D02*
X121928571Y-88014819D01*
X123309523Y-88014819D02*
X122738095Y-88014819D01*
X123023809Y-88014819D02*
X123023809Y-87014819D01*
X123023809Y-87014819D02*
X122928571Y-87157676D01*
X122928571Y-87157676D02*
X122833333Y-87252914D01*
X122833333Y-87252914D02*
X122738095Y-87300533D01*
X122333333Y-99854819D02*
X122000000Y-99378628D01*
X121761905Y-99854819D02*
X121761905Y-98854819D01*
X121761905Y-98854819D02*
X122142857Y-98854819D01*
X122142857Y-98854819D02*
X122238095Y-98902438D01*
X122238095Y-98902438D02*
X122285714Y-98950057D01*
X122285714Y-98950057D02*
X122333333Y-99045295D01*
X122333333Y-99045295D02*
X122333333Y-99188152D01*
X122333333Y-99188152D02*
X122285714Y-99283390D01*
X122285714Y-99283390D02*
X122238095Y-99331009D01*
X122238095Y-99331009D02*
X122142857Y-99378628D01*
X122142857Y-99378628D02*
X121761905Y-99378628D01*
X122714286Y-98950057D02*
X122761905Y-98902438D01*
X122761905Y-98902438D02*
X122857143Y-98854819D01*
X122857143Y-98854819D02*
X123095238Y-98854819D01*
X123095238Y-98854819D02*
X123190476Y-98902438D01*
X123190476Y-98902438D02*
X123238095Y-98950057D01*
X123238095Y-98950057D02*
X123285714Y-99045295D01*
X123285714Y-99045295D02*
X123285714Y-99140533D01*
X123285714Y-99140533D02*
X123238095Y-99283390D01*
X123238095Y-99283390D02*
X122666667Y-99854819D01*
X122666667Y-99854819D02*
X123285714Y-99854819D01*
X110109047Y-98821009D02*
X110251904Y-98868628D01*
X110251904Y-98868628D02*
X110299523Y-98916247D01*
X110299523Y-98916247D02*
X110347142Y-99011485D01*
X110347142Y-99011485D02*
X110347142Y-99154342D01*
X110347142Y-99154342D02*
X110299523Y-99249580D01*
X110299523Y-99249580D02*
X110251904Y-99297200D01*
X110251904Y-99297200D02*
X110156666Y-99344819D01*
X110156666Y-99344819D02*
X109775714Y-99344819D01*
X109775714Y-99344819D02*
X109775714Y-98344819D01*
X109775714Y-98344819D02*
X110109047Y-98344819D01*
X110109047Y-98344819D02*
X110204285Y-98392438D01*
X110204285Y-98392438D02*
X110251904Y-98440057D01*
X110251904Y-98440057D02*
X110299523Y-98535295D01*
X110299523Y-98535295D02*
X110299523Y-98630533D01*
X110299523Y-98630533D02*
X110251904Y-98725771D01*
X110251904Y-98725771D02*
X110204285Y-98773390D01*
X110204285Y-98773390D02*
X110109047Y-98821009D01*
X110109047Y-98821009D02*
X109775714Y-98821009D01*
X110680476Y-98344819D02*
X111347142Y-98344819D01*
X111347142Y-98344819D02*
X110680476Y-99344819D01*
X110680476Y-99344819D02*
X111347142Y-99344819D01*
X112251904Y-99344819D02*
X111680476Y-99344819D01*
X111966190Y-99344819D02*
X111966190Y-98344819D01*
X111966190Y-98344819D02*
X111870952Y-98487676D01*
X111870952Y-98487676D02*
X111775714Y-98582914D01*
X111775714Y-98582914D02*
X111680476Y-98630533D01*
X114429048Y-92613866D02*
X115190953Y-92613866D01*
X114810000Y-92994819D02*
X114810000Y-92232914D01*
X130416667Y-100149700D02*
X130559524Y-100197319D01*
X130559524Y-100197319D02*
X130797619Y-100197319D01*
X130797619Y-100197319D02*
X130892857Y-100149700D01*
X130892857Y-100149700D02*
X130940476Y-100102080D01*
X130940476Y-100102080D02*
X130988095Y-100006842D01*
X130988095Y-100006842D02*
X130988095Y-99911604D01*
X130988095Y-99911604D02*
X130940476Y-99816366D01*
X130940476Y-99816366D02*
X130892857Y-99768747D01*
X130892857Y-99768747D02*
X130797619Y-99721128D01*
X130797619Y-99721128D02*
X130607143Y-99673509D01*
X130607143Y-99673509D02*
X130511905Y-99625890D01*
X130511905Y-99625890D02*
X130464286Y-99578271D01*
X130464286Y-99578271D02*
X130416667Y-99483033D01*
X130416667Y-99483033D02*
X130416667Y-99387795D01*
X130416667Y-99387795D02*
X130464286Y-99292557D01*
X130464286Y-99292557D02*
X130511905Y-99244938D01*
X130511905Y-99244938D02*
X130607143Y-99197319D01*
X130607143Y-99197319D02*
X130845238Y-99197319D01*
X130845238Y-99197319D02*
X130988095Y-99244938D01*
X131321429Y-99197319D02*
X131559524Y-100197319D01*
X131559524Y-100197319D02*
X131750000Y-99483033D01*
X131750000Y-99483033D02*
X131940476Y-100197319D01*
X131940476Y-100197319D02*
X132178572Y-99197319D01*
X133083333Y-100197319D02*
X132511905Y-100197319D01*
X132797619Y-100197319D02*
X132797619Y-99197319D01*
X132797619Y-99197319D02*
X132702381Y-99340176D01*
X132702381Y-99340176D02*
X132607143Y-99435414D01*
X132607143Y-99435414D02*
X132511905Y-99483033D01*
X128531905Y-88914819D02*
X128531905Y-87914819D01*
X128531905Y-87914819D02*
X128770000Y-87914819D01*
X128770000Y-87914819D02*
X128912857Y-87962438D01*
X128912857Y-87962438D02*
X129008095Y-88057676D01*
X129008095Y-88057676D02*
X129055714Y-88152914D01*
X129055714Y-88152914D02*
X129103333Y-88343390D01*
X129103333Y-88343390D02*
X129103333Y-88486247D01*
X129103333Y-88486247D02*
X129055714Y-88676723D01*
X129055714Y-88676723D02*
X129008095Y-88771961D01*
X129008095Y-88771961D02*
X128912857Y-88867200D01*
X128912857Y-88867200D02*
X128770000Y-88914819D01*
X128770000Y-88914819D02*
X128531905Y-88914819D01*
X130055714Y-88914819D02*
X129484286Y-88914819D01*
X129770000Y-88914819D02*
X129770000Y-87914819D01*
X129770000Y-87914819D02*
X129674762Y-88057676D01*
X129674762Y-88057676D02*
X129579524Y-88152914D01*
X129579524Y-88152914D02*
X129484286Y-88200533D01*
X126333333Y-93324819D02*
X126000000Y-92848628D01*
X125761905Y-93324819D02*
X125761905Y-92324819D01*
X125761905Y-92324819D02*
X126142857Y-92324819D01*
X126142857Y-92324819D02*
X126238095Y-92372438D01*
X126238095Y-92372438D02*
X126285714Y-92420057D01*
X126285714Y-92420057D02*
X126333333Y-92515295D01*
X126333333Y-92515295D02*
X126333333Y-92658152D01*
X126333333Y-92658152D02*
X126285714Y-92753390D01*
X126285714Y-92753390D02*
X126238095Y-92801009D01*
X126238095Y-92801009D02*
X126142857Y-92848628D01*
X126142857Y-92848628D02*
X125761905Y-92848628D01*
X127285714Y-93324819D02*
X126714286Y-93324819D01*
X127000000Y-93324819D02*
X127000000Y-92324819D01*
X127000000Y-92324819D02*
X126904762Y-92467676D01*
X126904762Y-92467676D02*
X126809524Y-92562914D01*
X126809524Y-92562914D02*
X126714286Y-92610533D01*
X149416667Y-80664700D02*
X149559524Y-80712319D01*
X149559524Y-80712319D02*
X149797619Y-80712319D01*
X149797619Y-80712319D02*
X149892857Y-80664700D01*
X149892857Y-80664700D02*
X149940476Y-80617080D01*
X149940476Y-80617080D02*
X149988095Y-80521842D01*
X149988095Y-80521842D02*
X149988095Y-80426604D01*
X149988095Y-80426604D02*
X149940476Y-80331366D01*
X149940476Y-80331366D02*
X149892857Y-80283747D01*
X149892857Y-80283747D02*
X149797619Y-80236128D01*
X149797619Y-80236128D02*
X149607143Y-80188509D01*
X149607143Y-80188509D02*
X149511905Y-80140890D01*
X149511905Y-80140890D02*
X149464286Y-80093271D01*
X149464286Y-80093271D02*
X149416667Y-79998033D01*
X149416667Y-79998033D02*
X149416667Y-79902795D01*
X149416667Y-79902795D02*
X149464286Y-79807557D01*
X149464286Y-79807557D02*
X149511905Y-79759938D01*
X149511905Y-79759938D02*
X149607143Y-79712319D01*
X149607143Y-79712319D02*
X149845238Y-79712319D01*
X149845238Y-79712319D02*
X149988095Y-79759938D01*
X150321429Y-79712319D02*
X150559524Y-80712319D01*
X150559524Y-80712319D02*
X150750000Y-79998033D01*
X150750000Y-79998033D02*
X150940476Y-80712319D01*
X150940476Y-80712319D02*
X151178572Y-79712319D01*
X152083333Y-80712319D02*
X151511905Y-80712319D01*
X151797619Y-80712319D02*
X151797619Y-79712319D01*
X151797619Y-79712319D02*
X151702381Y-79855176D01*
X151702381Y-79855176D02*
X151607143Y-79950414D01*
X151607143Y-79950414D02*
X151511905Y-79998033D01*
X170629047Y-81041009D02*
X170771904Y-81088628D01*
X170771904Y-81088628D02*
X170819523Y-81136247D01*
X170819523Y-81136247D02*
X170867142Y-81231485D01*
X170867142Y-81231485D02*
X170867142Y-81374342D01*
X170867142Y-81374342D02*
X170819523Y-81469580D01*
X170819523Y-81469580D02*
X170771904Y-81517200D01*
X170771904Y-81517200D02*
X170676666Y-81564819D01*
X170676666Y-81564819D02*
X170295714Y-81564819D01*
X170295714Y-81564819D02*
X170295714Y-80564819D01*
X170295714Y-80564819D02*
X170629047Y-80564819D01*
X170629047Y-80564819D02*
X170724285Y-80612438D01*
X170724285Y-80612438D02*
X170771904Y-80660057D01*
X170771904Y-80660057D02*
X170819523Y-80755295D01*
X170819523Y-80755295D02*
X170819523Y-80850533D01*
X170819523Y-80850533D02*
X170771904Y-80945771D01*
X170771904Y-80945771D02*
X170724285Y-80993390D01*
X170724285Y-80993390D02*
X170629047Y-81041009D01*
X170629047Y-81041009D02*
X170295714Y-81041009D01*
X171200476Y-80564819D02*
X171867142Y-80564819D01*
X171867142Y-80564819D02*
X171200476Y-81564819D01*
X171200476Y-81564819D02*
X171867142Y-81564819D01*
X172771904Y-81564819D02*
X172200476Y-81564819D01*
X172486190Y-81564819D02*
X172486190Y-80564819D01*
X172486190Y-80564819D02*
X172390952Y-80707676D01*
X172390952Y-80707676D02*
X172295714Y-80802914D01*
X172295714Y-80802914D02*
X172200476Y-80850533D01*
X167309048Y-87533866D02*
X168070953Y-87533866D01*
X167690000Y-87914819D02*
X167690000Y-87152914D01*
D10*
X145714285Y-92933609D02*
X145857142Y-92981228D01*
X145857142Y-92981228D02*
X145904761Y-93028847D01*
X145904761Y-93028847D02*
X145952380Y-93124085D01*
X145952380Y-93124085D02*
X145952380Y-93266942D01*
X145952380Y-93266942D02*
X145904761Y-93362180D01*
X145904761Y-93362180D02*
X145857142Y-93409800D01*
X145857142Y-93409800D02*
X145761904Y-93457419D01*
X145761904Y-93457419D02*
X145380952Y-93457419D01*
X145380952Y-93457419D02*
X145380952Y-92457419D01*
X145380952Y-92457419D02*
X145714285Y-92457419D01*
X145714285Y-92457419D02*
X145809523Y-92505038D01*
X145809523Y-92505038D02*
X145857142Y-92552657D01*
X145857142Y-92552657D02*
X145904761Y-92647895D01*
X145904761Y-92647895D02*
X145904761Y-92743133D01*
X145904761Y-92743133D02*
X145857142Y-92838371D01*
X145857142Y-92838371D02*
X145809523Y-92885990D01*
X145809523Y-92885990D02*
X145714285Y-92933609D01*
X145714285Y-92933609D02*
X145380952Y-92933609D01*
X146238095Y-92457419D02*
X146809523Y-92457419D01*
X146523809Y-93457419D02*
X146523809Y-92457419D01*
X147666666Y-93457419D02*
X147095238Y-93457419D01*
X147380952Y-93457419D02*
X147380952Y-92457419D01*
X147380952Y-92457419D02*
X147285714Y-92600276D01*
X147285714Y-92600276D02*
X147190476Y-92695514D01*
X147190476Y-92695514D02*
X147095238Y-92743133D01*
X147303884Y-95491466D02*
X148065789Y-95491466D01*
X147303884Y-91491466D02*
X148065789Y-91491466D01*
X147684836Y-91872419D02*
X147684836Y-91110514D01*
D11*
X159833333Y-81054819D02*
X159500000Y-80578628D01*
X159261905Y-81054819D02*
X159261905Y-80054819D01*
X159261905Y-80054819D02*
X159642857Y-80054819D01*
X159642857Y-80054819D02*
X159738095Y-80102438D01*
X159738095Y-80102438D02*
X159785714Y-80150057D01*
X159785714Y-80150057D02*
X159833333Y-80245295D01*
X159833333Y-80245295D02*
X159833333Y-80388152D01*
X159833333Y-80388152D02*
X159785714Y-80483390D01*
X159785714Y-80483390D02*
X159738095Y-80531009D01*
X159738095Y-80531009D02*
X159642857Y-80578628D01*
X159642857Y-80578628D02*
X159261905Y-80578628D01*
X160214286Y-80150057D02*
X160261905Y-80102438D01*
X160261905Y-80102438D02*
X160357143Y-80054819D01*
X160357143Y-80054819D02*
X160595238Y-80054819D01*
X160595238Y-80054819D02*
X160690476Y-80102438D01*
X160690476Y-80102438D02*
X160738095Y-80150057D01*
X160738095Y-80150057D02*
X160785714Y-80245295D01*
X160785714Y-80245295D02*
X160785714Y-80340533D01*
X160785714Y-80340533D02*
X160738095Y-80483390D01*
X160738095Y-80483390D02*
X160166667Y-81054819D01*
X160166667Y-81054819D02*
X160785714Y-81054819D01*
X155833333Y-87584819D02*
X155500000Y-87108628D01*
X155261905Y-87584819D02*
X155261905Y-86584819D01*
X155261905Y-86584819D02*
X155642857Y-86584819D01*
X155642857Y-86584819D02*
X155738095Y-86632438D01*
X155738095Y-86632438D02*
X155785714Y-86680057D01*
X155785714Y-86680057D02*
X155833333Y-86775295D01*
X155833333Y-86775295D02*
X155833333Y-86918152D01*
X155833333Y-86918152D02*
X155785714Y-87013390D01*
X155785714Y-87013390D02*
X155738095Y-87061009D01*
X155738095Y-87061009D02*
X155642857Y-87108628D01*
X155642857Y-87108628D02*
X155261905Y-87108628D01*
X156785714Y-87584819D02*
X156214286Y-87584819D01*
X156500000Y-87584819D02*
X156500000Y-86584819D01*
X156500000Y-86584819D02*
X156404762Y-86727676D01*
X156404762Y-86727676D02*
X156309524Y-86822914D01*
X156309524Y-86822914D02*
X156214286Y-86870533D01*
X152491905Y-91994819D02*
X152491905Y-90994819D01*
X152491905Y-90994819D02*
X152730000Y-90994819D01*
X152730000Y-90994819D02*
X152872857Y-91042438D01*
X152872857Y-91042438D02*
X152968095Y-91137676D01*
X152968095Y-91137676D02*
X153015714Y-91232914D01*
X153015714Y-91232914D02*
X153063333Y-91423390D01*
X153063333Y-91423390D02*
X153063333Y-91566247D01*
X153063333Y-91566247D02*
X153015714Y-91756723D01*
X153015714Y-91756723D02*
X152968095Y-91851961D01*
X152968095Y-91851961D02*
X152872857Y-91947200D01*
X152872857Y-91947200D02*
X152730000Y-91994819D01*
X152730000Y-91994819D02*
X152491905Y-91994819D01*
X154015714Y-91994819D02*
X153444286Y-91994819D01*
X153730000Y-91994819D02*
X153730000Y-90994819D01*
X153730000Y-90994819D02*
X153634762Y-91137676D01*
X153634762Y-91137676D02*
X153539524Y-91232914D01*
X153539524Y-91232914D02*
X153444286Y-91280533D01*
X159904761Y-92990057D02*
X159809523Y-92942438D01*
X159809523Y-92942438D02*
X159714285Y-92847200D01*
X159714285Y-92847200D02*
X159571428Y-92704342D01*
X159571428Y-92704342D02*
X159476190Y-92656723D01*
X159476190Y-92656723D02*
X159380952Y-92656723D01*
X159428571Y-92894819D02*
X159333333Y-92847200D01*
X159333333Y-92847200D02*
X159238095Y-92751961D01*
X159238095Y-92751961D02*
X159190476Y-92561485D01*
X159190476Y-92561485D02*
X159190476Y-92228152D01*
X159190476Y-92228152D02*
X159238095Y-92037676D01*
X159238095Y-92037676D02*
X159333333Y-91942438D01*
X159333333Y-91942438D02*
X159428571Y-91894819D01*
X159428571Y-91894819D02*
X159619047Y-91894819D01*
X159619047Y-91894819D02*
X159714285Y-91942438D01*
X159714285Y-91942438D02*
X159809523Y-92037676D01*
X159809523Y-92037676D02*
X159857142Y-92228152D01*
X159857142Y-92228152D02*
X159857142Y-92561485D01*
X159857142Y-92561485D02*
X159809523Y-92751961D01*
X159809523Y-92751961D02*
X159714285Y-92847200D01*
X159714285Y-92847200D02*
X159619047Y-92894819D01*
X159619047Y-92894819D02*
X159428571Y-92894819D01*
X160809523Y-92894819D02*
X160238095Y-92894819D01*
X160523809Y-92894819D02*
X160523809Y-91894819D01*
X160523809Y-91894819D02*
X160428571Y-92037676D01*
X160428571Y-92037676D02*
X160333333Y-92132914D01*
X160333333Y-92132914D02*
X160238095Y-92180533D01*
%TO.C,BT1*%
D10*
X138000000Y-91500000D02*
X134000000Y-91500000D01*
X134000000Y-81500000D01*
X138000000Y-81500000D01*
X138000000Y-91500000D01*
D12*
%TO.C,Q1*%
X124300000Y-82150000D02*
X120700000Y-82150000D01*
X124338478Y-82161522D02*
G75*
G02*
X122500000Y-86600001I-1838478J-1838478D01*
G01*
X122500000Y-86600000D02*
G75*
G02*
X120661522Y-82161522I0J2600000D01*
G01*
%TO.C,R2*%
X124050000Y-98650000D02*
X121000000Y-98650000D01*
X124050000Y-94350000D02*
X121000000Y-94350000D01*
X124050000Y-94350000D02*
G75*
G02*
X124028234Y-98665525I-1550000J-2150000D01*
G01*
X121000000Y-98650000D02*
G75*
G02*
X120955487Y-94381751I1500000J2150000D01*
G01*
%TO.C,BZ1*%
X118600000Y-90000000D02*
G75*
G02*
X103400000Y-90000000I-7600000J0D01*
G01*
X103400000Y-90000000D02*
G75*
G02*
X118600000Y-90000000I7600000J0D01*
G01*
%TO.C,SW1*%
X136600000Y-98592500D02*
X136600000Y-94392500D01*
X136600000Y-94392500D02*
X135400000Y-94392500D01*
X136250000Y-98592500D02*
X136600000Y-98592500D01*
X128600000Y-98592500D02*
X127400000Y-98592500D01*
X127400000Y-98592500D02*
X127400000Y-94392500D01*
X127400000Y-94392500D02*
X128600000Y-94392500D01*
X135500000Y-99072500D02*
X135500000Y-98592500D01*
X135980000Y-98592500D01*
X135500000Y-99072500D01*
G36*
X135500000Y-99072500D02*
G01*
X135500000Y-98592500D01*
X135980000Y-98592500D01*
X135500000Y-99072500D01*
G37*
%TO.C,D1*%
X131830000Y-86045000D02*
X131830000Y-82955000D01*
X131830000Y-86044830D02*
G75*
G02*
X126280000Y-84500000I-2560000J1544830D01*
G01*
X126280000Y-84500000D02*
G75*
G02*
X131830000Y-82955170I2990000J0D01*
G01*
X131770000Y-84500000D02*
G75*
G02*
X126770000Y-84500000I-2500000J0D01*
G01*
X126770000Y-84500000D02*
G75*
G02*
X131770000Y-84500000I2500000J0D01*
G01*
%TO.C,R1*%
X130540000Y-90500000D02*
X129770000Y-90500000D01*
X122460000Y-90500000D02*
X123230000Y-90500000D01*
X129770000Y-91870000D02*
X123230000Y-91870000D01*
X123230000Y-89130000D01*
X129770000Y-89130000D01*
X129770000Y-91870000D01*
%TO.C,SW1*%
X145900000Y-81407500D02*
X145900000Y-85607500D01*
X145900000Y-85607500D02*
X147100000Y-85607500D01*
X146250000Y-81407500D02*
X145900000Y-81407500D01*
X153900000Y-81407500D02*
X155100000Y-81407500D01*
X155100000Y-81407500D02*
X155100000Y-85607500D01*
X155100000Y-85607500D02*
X153900000Y-85607500D01*
X147000000Y-81407500D02*
X146520000Y-81407500D01*
X147000000Y-80927500D01*
X147000000Y-81407500D01*
G36*
X147000000Y-81407500D02*
G01*
X146520000Y-81407500D01*
X147000000Y-80927500D01*
X147000000Y-81407500D01*
G37*
%TO.C,BZ1*%
X179100000Y-90000000D02*
G75*
G02*
X163900000Y-90000000I-7600000J0D01*
G01*
X163900000Y-90000000D02*
G75*
G02*
X179100000Y-90000000I7600000J0D01*
G01*
%TO.C,BT1*%
D10*
X144500000Y-88500000D02*
X148500000Y-88500000D01*
X148500000Y-98500000D01*
X144500000Y-98500000D01*
X144500000Y-88500000D01*
D12*
%TO.C,R2*%
X158450000Y-81350000D02*
X161500000Y-81350000D01*
X158450000Y-85650000D02*
X161500000Y-85650000D01*
X158450000Y-85650000D02*
G75*
G02*
X158471766Y-81334475I1550000J2150000D01*
G01*
X161500000Y-81350000D02*
G75*
G02*
X161544513Y-85618249I-1500000J-2150000D01*
G01*
%TO.C,R1*%
X151960000Y-89500000D02*
X152730000Y-89500000D01*
X160040000Y-89500000D02*
X159270000Y-89500000D01*
X152730000Y-88130000D02*
X159270000Y-88130000D01*
X159270000Y-90870000D01*
X152730000Y-90870000D01*
X152730000Y-88130000D01*
%TO.C,D1*%
X150670000Y-93955000D02*
X150670000Y-97045000D01*
X150670000Y-93955170D02*
G75*
G02*
X156220000Y-95500000I2560000J-1544830D01*
G01*
X156220000Y-95500000D02*
G75*
G02*
X150670000Y-97044830I-2990000J0D01*
G01*
X155730000Y-95500000D02*
G75*
G02*
X150730000Y-95500000I-2500000J0D01*
G01*
X150730000Y-95500000D02*
G75*
G02*
X155730000Y-95500000I2500000J0D01*
G01*
%TO.C,Q1*%
X158200000Y-97850000D02*
X161800000Y-97850000D01*
X158161522Y-97838478D02*
G75*
G02*
X160000000Y-93399999I1838478J1838478D01*
G01*
X160000000Y-93400000D02*
G75*
G02*
X161838478Y-97838478I0J-2600000D01*
G01*
%TD*%
M02*
