%TF.GenerationSoftware,KiCad,Pcbnew,9.0.3*%
%TF.CreationDate,2025-07-21T22:41:49+05:30*%
%TF.ProjectId,ldr sensor.kicad_pc_boards,6c647220-7365-46e7-936f-722e6b696361,rev?*%
%TF.SameCoordinates,Original*%
%TF.FileFunction,Soldermask,Top*%
%TF.FilePolarity,Negative*%
%FSLAX46Y46*%
G04 Gerber Fmt 4.6, Leading zero omitted, Abs format (unit mm)*
G04 Created by KiCad (PCBNEW 9.0.3) date 2025-07-21 22:41:49*
%MOMM*%
%LPD*%
G01*
G04 APERTURE LIST*
G04 Aperture macros list*
%AMRoundRect*
0 Rectangle with rounded corners*
0 $1 Rounding radius*
0 $2 $3 $4 $5 $6 $7 $8 $9 X,Y pos of 4 corners*
0 Add a 4 corners polygon primitive as box body*
4,1,4,$2,$3,$4,$5,$6,$7,$8,$9,$2,$3,0*
0 Add four circle primitives for the rounded corners*
1,1,$1+$1,$2,$3*
1,1,$1+$1,$4,$5*
1,1,$1+$1,$6,$7*
1,1,$1+$1,$8,$9*
0 Add four rect primitives between the rounded corners*
20,1,$1+$1,$2,$3,$4,$5,0*
20,1,$1+$1,$4,$5,$6,$7,0*
20,1,$1+$1,$6,$7,$8,$9,0*
20,1,$1+$1,$8,$9,$2,$3,0*%
G04 Aperture macros list end*
%ADD10RoundRect,0.225000X1.025000X0.525000X-1.025000X0.525000X-1.025000X-0.525000X1.025000X-0.525000X0*%
%ADD11R,1.050000X1.500000*%
%ADD12O,1.050000X1.500000*%
%ADD13C,1.500000*%
%ADD14R,2.000000X2.000000*%
%ADD15C,2.000000*%
%ADD16RoundRect,0.250000X0.450000X0.450000X-0.450000X0.450000X-0.450000X-0.450000X0.450000X-0.450000X0*%
%ADD17C,1.400000*%
%ADD18R,1.800000X1.800000*%
%ADD19C,1.800000*%
%ADD20C,1.600000*%
%ADD21RoundRect,0.250000X-0.450000X-0.450000X0.450000X-0.450000X0.450000X0.450000X-0.450000X0.450000X0*%
%ADD22RoundRect,0.225000X-1.025000X-0.525000X1.025000X-0.525000X1.025000X0.525000X-1.025000X0.525000X0*%
G04 APERTURE END LIST*
D10*
%TO.C,BT1*%
X136000000Y-90000000D03*
X136000000Y-83000000D03*
%TD*%
D11*
%TO.C,Q1*%
X123770000Y-84000000D03*
D12*
X122500000Y-84000000D03*
X121230000Y-84000000D03*
%TD*%
D13*
%TO.C,R2*%
X124200000Y-96500000D03*
X120800000Y-96500000D03*
%TD*%
D14*
%TO.C,BZ1*%
X114800000Y-90000000D03*
D15*
X107200000Y-90000000D03*
%TD*%
D16*
%TO.C,SW1*%
X134500000Y-98142500D03*
D17*
X132000000Y-98142500D03*
X129500000Y-98142500D03*
X129500000Y-94842500D03*
X132000000Y-94842500D03*
X134500000Y-94842500D03*
%TD*%
D18*
%TO.C,D1*%
X130540000Y-84500000D03*
D19*
X128000000Y-84500000D03*
%TD*%
D20*
%TO.C,R1*%
X131580000Y-90500000D03*
X121420000Y-90500000D03*
%TD*%
D21*
%TO.C,SW1*%
X148000000Y-81857500D03*
D17*
X150500000Y-81857500D03*
X153000000Y-81857500D03*
X153000000Y-85157500D03*
X150500000Y-85157500D03*
X148000000Y-85157500D03*
%TD*%
D14*
%TO.C,BZ1*%
X167700000Y-90000000D03*
D15*
X175300000Y-90000000D03*
%TD*%
D22*
%TO.C,BT1*%
X146500000Y-90000000D03*
X146500000Y-97000000D03*
%TD*%
D13*
%TO.C,R2*%
X158300000Y-83500000D03*
X161700000Y-83500000D03*
%TD*%
D20*
%TO.C,R1*%
X150920000Y-89500000D03*
X161080000Y-89500000D03*
%TD*%
D18*
%TO.C,D1*%
X151960000Y-95500000D03*
D19*
X154500000Y-95500000D03*
%TD*%
D11*
%TO.C,Q1*%
X158730000Y-96000000D03*
D12*
X160000000Y-96000000D03*
X161270000Y-96000000D03*
%TD*%
M02*
